<svg xmlns="http://www.w3.org/2000/svg" width="57" height="57" viewBox="0 0 57 57">
  <g id="Group_60895" data-name="Group 60895" transform="translate(-3559 -97)">
    <rect id="Rectangle_29803" data-name="Rectangle 29803" width="57" height="57" rx="5" transform="translate(3559 97)" fill="#2b2b2b"/>
    <path id="Path_61598" data-name="Path 61598" d="M4057,503.014l11.211-12.468-5.56,12.468Zm-5.149,6.536a5.311,5.311,0,0,1-2.365-1.053,4.174,4.174,0,0,1-1.5-3.407,5.3,5.3,0,0,1,1.374-3.606l1.191-1.219,15.216-16.319a20.2,20.2,0,0,1,3.083-2.744h-23.794l-4.647,11.5h7.036l-8.589,16.846ZM4076.72,481.2l-.063.156a4.2,4.2,0,0,1,.938,2.711,10.575,10.575,0,0,1-.915,3.666l-6.2,15.277h1.712q3.881,0,3.881,2.749a3.478,3.478,0,0,1-1.375,2.919,6.152,6.152,0,0,1-3.818,1.053h-3.148l-1.619,4-.336.855q-1.437,3.454-4.493,3.454a3.146,3.146,0,0,1-2.227-.857,2.725,2.725,0,0,1-.918-2.076,9,9,0,0,1,.794-2.963l.978-2.415h-1.4l-6.577,7.814a9.431,9.431,0,0,0,3.783,2.907,13.863,13.863,0,0,0,5.374.936,16.616,16.616,0,0,0,6.624-1.417,19.677,19.677,0,0,0,5.933-3.986,17.532,17.532,0,0,0,2.555-3.146,29.64,29.64,0,0,0,2.289-4.682l10.891-26.958Z" transform="translate(-476.662 -375.453)" fill="#e34859"/>
  </g>
</svg>
