<?xml version="1.0" encoding="utf-8"?>
<!-- Generator: Adobe Illustrator 24.1.1, SVG Export Plug-In . SVG Version: 6.00 Build 0)  -->
<svg version="1.1" id="Layer_1" xmlns="http://www.w3.org/2000/svg" xmlns:xlink="http://www.w3.org/1999/xlink" x="0px" y="0px"
	 viewBox="0 0 57 57" style="enable-background:new 0 0 57 57;" xml:space="preserve">
<style type="text/css">
	.st0{opacity:0;fill:#FFFFFF;}
	.st1{fill:#E34859;}
</style>
<g id="Group_60895" transform="translate(-3559 -97)">
	<path id="Rectangle_29803" class="st0" d="M3564,97h47c2.8,0,5,2.2,5,5v47c0,2.8-2.2,5-5,5h-47c-2.8,0-5-2.2-5-5v-47
		C3559,99.2,3561.2,97,3564,97z"/>
	<path id="Path_61598" class="st1" d="M3579.7,127.7l12.1-13.5l-6.1,13.5H3579.7z M3574.2,134.8c-1-0.2-1.8-0.5-2.6-1.2
		c-1.1-0.9-1.7-2.3-1.6-3.7c0-1.4,0.5-2.8,1.5-3.9l1.3-1.3l16.4-17.6c1-1.1,2.2-2.1,3.3-2.9h-25.7l-5,12.4h7.6l-9.3,18.2H3574.2z
		 M3601.1,104.1l-0.1,0.2c0.6,0.9,1.1,1.8,1,2.9c-0.1,1.4-0.4,2.7-1,4l-6.7,16.5h1.8c2.8,0,4.2,1,4.2,2.9c0,1.2-0.5,2.4-1.5,3.1
		c-1.2,0.9-2.7,1.2-4.1,1.2h-3.3l-1.7,4.3l-0.3,1c-1.1,2.5-2.7,3.8-4.9,3.8c-0.9,0-1.7-0.3-2.4-1c-0.6-0.5-1-1.4-1-2.3
		c0.1-1.1,0.4-2.2,0.9-3.2l1.1-2.6h-1.5l-7.1,8.4c1.1,1.4,2.5,2.5,4.1,3.1c1.8,0.8,3.8,1.1,5.8,1c2.5,0,4.9-0.5,7.1-1.5
		c2.4-1.1,4.5-2.5,6.4-4.3c1.1-1,1.9-2.2,2.8-3.3c1-1.6,1.8-3.3,2.5-5.1L3615,104L3601.1,104.1z"/>
</g>
</svg>
