<svg xmlns="http://www.w3.org/2000/svg" width="18" height="18" viewBox="0 0 18 18">
  <g id="Google" transform="translate(-3268.5 -6182)">
    <path id="Path_2384" data-name="Path 2384" d="M275.06,211.479h-7.342a.587.587,0,0,0-.587.587v2.345a.587.587,0,0,0,.587.587h4.135a5.52,5.52,0,0,1-2.376,2.784l1.763,3.052a8.825,8.825,0,0,0,4.5-7.718,5.948,5.948,0,0,0-.1-1.153A.59.59,0,0,0,275.06,211.479Z" transform="translate(3010.76 5977.956)" fill="#167ee6"/>
    <path id="Path_2385" data-name="Path 2385" d="M42.2,336.588a5.477,5.477,0,0,1-4.738-2.741l-3.052,1.759a8.993,8.993,0,0,0,12.29,3.3v0l-1.763-3.052A5.437,5.437,0,0,1,42.2,336.588Z" transform="translate(3235.299 5859.89)" fill="#12b347"/>
    <path id="Path_2386" data-name="Path 2386" d="M260.5,393.835v0l-1.763-3.052a5.438,5.438,0,0,1-2.737.74v3.522A8.985,8.985,0,0,0,260.5,393.835Z" transform="translate(3021.5 5804.959)" fill="#0f993e"/>
    <path id="Path_2387" data-name="Path 2387" d="M3.522,132.615a5.437,5.437,0,0,1,.74-2.737L1.21,128.119a8.959,8.959,0,0,0,0,8.992l3.052-1.759A5.438,5.438,0,0,1,3.522,132.615Z" transform="translate(3268.5 6058.385)" fill="#ffd500"/>
    <path id="Path_2388" data-name="Path 2388" d="M42.2,3.522A5.453,5.453,0,0,1,45.679,4.77a.585.585,0,0,0,.787-.035l1.662-1.662a.591.591,0,0,0-.034-.865A8.98,8.98,0,0,0,34.411,4.5l3.052,1.759A5.477,5.477,0,0,1,42.2,3.522Z" transform="translate(3235.299 6182)" fill="#ff4b26"/>
    <path id="Path_2389" data-name="Path 2389" d="M259.478,4.77a.585.585,0,0,0,.787-.035l1.662-1.662a.591.591,0,0,0-.034-.865A8.973,8.973,0,0,0,256,0V3.522A5.453,5.453,0,0,1,259.478,4.77Z" transform="translate(3021.5 6182)" fill="#d93f21"/>
  </g>
</svg>
