<svg xmlns="http://www.w3.org/2000/svg" width="18" height="18" viewBox="0 0 18 18">
  <path id="Union_8" data-name="Union 8" d="M1.21,13.5a8.959,8.959,0,0,1,0-8.991,8.98,8.98,0,0,1,13.684-2.3.591.591,0,0,1,.033.865L13.265,4.735a.585.585,0,0,1-.787.036,5.482,5.482,0,1,0-.742,8.968L13.5,16.79v0A8.992,8.992,0,0,1,1.21,13.5Zm10.527.243a5.521,5.521,0,0,0,2.376-2.784H9.978a.587.587,0,0,1-.587-.588V8.022a.587.587,0,0,1,.587-.587h7.342a.589.589,0,0,1,.579.484A6.014,6.014,0,0,1,18,9.073a8.825,8.825,0,0,1-4.5,7.717Z" fill="#fff"/>
</svg>
