<svg id="Group_60886" data-name="Group 60886" xmlns="http://www.w3.org/2000/svg" viewBox="0 0 390 80"><defs><style>.cls-1{fill:none;}.cls-2{fill:#fff;}.cls-3{fill:#e34859;}</style></defs><rect class="cls-1" width="390" height="80"/><path id="Path_61593" data-name="Path 61593" class="cls-2" d="M107.6,38.4H101L103.8,21H99.9l.9-5.9h14.3l-.9,5.9h-3.9Zm21.2-5.7a6,6,0,0,1-2.1,4.5,6.9,6.9,0,0,1-4.9,1.7,6.7,6.7,0,0,1-5.1-1.8,7.5,7.5,0,0,1-1.8-5.4,12.4,12.4,0,0,1,2.2-7.4,7.4,7.4,0,0,1,6-2.7,7,7,0,0,1,4.8,1.6,5.4,5.4,0,0,1,1.7,4.3v1.6c-.1.5-.1,1.1-.2,1.8h-8.7a5.7,5.7,0,0,0-.1,1.2,5.6,5.6,0,0,1-.1.7,2,2,0,0,0,.4,1.3,1.7,1.7,0,0,0,1.2.4,1.7,1.7,0,0,0,1.3-.5,1.9,1.9,0,0,0,.5-1.3Zm-7.7-4.5h3.5a2.8,2.8,0,0,0,.1-.8V27a1.7,1.7,0,0,0-.4-1.2,1,1,0,0,0-1-.4,2,2,0,0,0-1.4.6,5.8,5.8,0,0,0-.8,2.2Zm19.2,10.1-1.6.4-1.6.2a5.5,5.5,0,0,1-4.2-1.7,6.8,6.8,0,0,1-1.4-4.6,12.3,12.3,0,0,1,2.3-8,7.3,7.3,0,0,1,6.1-3h1.4l1.5.5-.8,5-.7-.3h-.7a2.1,2.1,0,0,0-1.7,1.3,6,6,0,0,0-.7,3.2,2.3,2.3,0,0,0,.3,1.6,1.8,1.8,0,0,0,1.2.5h.7l.7-.3Zm2.6.1,4-25.4h5.9l-1.7,10.7a4.3,4.3,0,0,1,1.6-1.4,3.7,3.7,0,0,1,2-.5,4,4,0,0,1,3,.9,3.4,3.4,0,0,1,1,2.7v1c-.1.3-.1.8-.2,1.3l-1.7,10.7h-5.9l1.5-9.7h0a1.6,1.6,0,0,0,.1-.4,1,1,0,0,0-1-1,1.2,1.2,0,0,0-.8.4,2.8,2.8,0,0,0-.4,1.2l-1.5,9.6Zm16.9,0L162.3,22h5.4l-.3,1.7a5.2,5.2,0,0,1,1.9-1.4,3.7,3.7,0,0,1,2.3-.5,3.8,3.8,0,0,1,2.9.9,3.5,3.5,0,0,1,1.1,2.7,3.8,3.8,0,0,1-.1,1,6.6,6.6,0,0,1-.1,1.3l-1.7,10.7h-5.9l1.5-9.7h0a1.6,1.6,0,0,0,.1-.4,1,1,0,0,0-1-1,1.2,1.2,0,0,0-.8.4,2.8,2.8,0,0,0-.4,1.2l-1.5,9.6Zm23.5-6.3a3.2,3.2,0,0,0,.3,1.4.7.7,0,0,0,.7.4c.6,0,1.1-.5,1.5-1.6a9.1,9.1,0,0,0,.6-4,1.9,1.9,0,0,0-.2-1.3,1,1,0,0,0-.8-.5c-.5,0-1,.6-1.5,1.7A13.2,13.2,0,0,0,183.3,32.1Zm1.1,6.8a7.1,7.1,0,0,1-5.2-1.8,7.5,7.5,0,0,1-1.8-5.4,11.7,11.7,0,0,1,2.2-7.4,6.7,6.7,0,0,1,5.7-2.7,6.9,6.9,0,0,1,5.3,1.8,7.4,7.4,0,0,1,1.7,5.3,11.3,11.3,0,0,1-2.1,7.4A6.8,6.8,0,0,1,184.4,38.9Zm9.2-.5L197.7,13h5.9l-4,25.4Zm15.9-6.3a2.2,2.2,0,0,0,.2,1.4.9.9,0,0,0,.8.4c.5,0,1-.5,1.5-1.6a13.4,13.4,0,0,0,.6-4,5.1,5.1,0,0,0-.2-1.3,1,1,0,0,0-.8-.5c-.6,0-1.1.6-1.5,1.7A10.6,10.6,0,0,0,209.5,32.1Zm1.1,6.8a7.1,7.1,0,0,1-5.2-1.8,7.1,7.1,0,0,1-1.8-5.4,11.6,11.6,0,0,1,2.1-7.4,6.9,6.9,0,0,1,5.8-2.7,6.7,6.7,0,0,1,5.2,1.8,7.5,7.5,0,0,1,1.8,5.3,11.9,11.9,0,0,1-2.1,7.4A7,7,0,0,1,210.6,38.9Zm17.7-12.6c-.5,0-1,.4-1.4,1.4a8.4,8.4,0,0,0-.7,3.5,3.9,3.9,0,0,0,.3,1.4.9.9,0,0,0,.8.4c.5,0,1-.5,1.4-1.4a10.3,10.3,0,0,0,.6-3.5,3.4,3.4,0,0,0-.2-1.4A.8.8,0,0,0,228.3,26.3Zm2-4.3H236l-2.5,15.6c-.5,2.7-1.2,4.4-2.4,5.3s-3,1.4-5.6,1.4a8.3,8.3,0,0,1-4.6-1.1,4.6,4.6,0,0,1-1.4-3.7V39h5v.3a1.1,1.1,0,0,0,.3.8,1.6,1.6,0,0,0,.9.3,1.9,1.9,0,0,0,1.3-.5,3.5,3.5,0,0,0,.6-1.7l.4-2.7a4.4,4.4,0,0,1-1.7,1.6,5.4,5.4,0,0,1-2.1.5,3.3,3.3,0,0,1-2.9-1.4,6,6,0,0,1-1-3.9,14.8,14.8,0,0,1,1.8-7.7,5.4,5.4,0,0,1,4.6-3,3.4,3.4,0,0,1,1.9.5,4,4,0,0,1,1.4,1.5Zm6.6,22,3-5.9L237.5,22h6.1l.4,9,3.5-9h6l-11,22Zm39.6-28.9H283l-2.5,16.1a11.6,11.6,0,0,1-2.3,5.9,6.6,6.6,0,0,1-4.8,1.8,8.3,8.3,0,0,1-2.2-.3,9.7,9.7,0,0,1-2.2-.8l.9-5.6,1.3.7.9.2a1.6,1.6,0,0,0,1.3-.6,4.1,4.1,0,0,0,.7-2.2Zm21.7,17.6a6.8,6.8,0,0,1-2.1,4.5,7.1,7.1,0,0,1-5,1.7,6.8,6.8,0,0,1-5.1-1.8,7.5,7.5,0,0,1-1.8-5.4,11.8,11.8,0,0,1,2.3-7.4,7.1,7.1,0,0,1,5.9-2.7,6.8,6.8,0,0,1,4.8,1.6,5.8,5.8,0,0,1,1.8,4.3c0,.5-.1,1-.1,1.6s-.1,1.1-.2,1.8H290c0,.5-.1.9-.1,1.2v.7a1.9,1.9,0,0,0,.3,1.3,1.9,1.9,0,0,0,1.2.4,1.7,1.7,0,0,0,1.3-.5,1.9,1.9,0,0,0,.5-1.3Zm-7.7-4.5H294V27a2.4,2.4,0,0,0-.3-1.2,1.2,1.2,0,0,0-1.1-.4,1.6,1.6,0,0,0-1.3.6,6,6,0,0,0-.9,2.2ZM301.4,22h5.4V32.1L309.9,22h4.8l-.2,10.1L317.8,22h5.4l-6.6,16.4h-5.3V28.8l-3.1,9.6h-5.3ZM337,32.7a6,6,0,0,1-2.1,4.5,6.9,6.9,0,0,1-4.9,1.7,6.7,6.7,0,0,1-5.1-1.8,7.5,7.5,0,0,1-1.8-5.4,12.4,12.4,0,0,1,2.2-7.4,7.4,7.4,0,0,1,6-2.7,7.1,7.1,0,0,1,4.8,1.6,5.4,5.4,0,0,1,1.7,4.3v1.6c-.1.5-.1,1.1-.2,1.8h-8.7a5.7,5.7,0,0,0-.1,1.2,2.3,2.3,0,0,0-.1.7,2,2,0,0,0,.4,1.3,1.6,1.6,0,0,0,1.2.4,1.8,1.8,0,0,0,1.3-.5,1.9,1.9,0,0,0,.5-1.3Zm-7.7-4.5h3.5c0-.4.1-.6.1-.8V27a1.7,1.7,0,0,0-.4-1.2,1,1,0,0,0-1-.4,1.8,1.8,0,0,0-1.4.6,5.8,5.8,0,0,0-.8,2.2Zm9.9,10.2,4-25.4h5.9l-4,25.4Zm9.1,0L350.9,22h5.6l-.4,2.3a7.9,7.9,0,0,1,2.2-1.9,7,7,0,0,1,2.7-.8l-.9,5.7H360a5,5,0,0,0-3.2.9,4.4,4.4,0,0,0-1.4,2.9l-1.1,7.3ZM361,44l3-5.9L361.6,22h6.1l.4,9,3.5-9h6l-11,22Z"/><path id="Path_61595" data-name="Path 61595" class="cls-2" d="M98.2,60.7,95.8,50.3h.9l1.7,7.9,3.5-8.2,1.9,8.2,3.4-7.9h.9l-4.6,10.4-1.8-8.3ZM112,54.8a2.1,2.1,0,0,0-1.8.8,2.3,2.3,0,0,0-.7,1.9,2.2,2.2,0,0,0,.6,1.7,2.4,2.4,0,0,0,1.6.7,2.5,2.5,0,0,0,1.8-.8,2.6,2.6,0,0,0,.7-2,2.2,2.2,0,0,0-.6-1.7A2.3,2.3,0,0,0,112,54.8Zm-3.4,2.8a3.5,3.5,0,0,1,1-2.6,3.5,3.5,0,0,1,2.4-1,3.2,3.2,0,0,1,2.3.9,3.3,3.3,0,0,1,.8,2.2,3.5,3.5,0,0,1-1,2.5,3.1,3.1,0,0,1-2.4,1,3.8,3.8,0,0,1-2.3-.8A3.5,3.5,0,0,1,108.6,57.6Zm8.1,2.7.8-6h.8v1a2.8,2.8,0,0,1,.9-1,1.4,1.4,0,0,1,.9-.3h.7l-.2.9-.4-.2h-.2a1.6,1.6,0,0,0-1.3.6,4.5,4.5,0,0,0-.7,1.8l-.3,3.1Zm4.7,0,1.4-10.6h.9l-1.4,10.6Zm6.1-.4a1.8,1.8,0,0,0,1.6-.8,3.1,3.1,0,0,0,.6-2.1,1.8,1.8,0,0,0-.5-1.6,1.5,1.5,0,0,0-1.3-.7,1.8,1.8,0,0,0-1.6.8,3.1,3.1,0,0,0-.7,2,2.8,2.8,0,0,0,.6,1.8,1.6,1.6,0,0,0,1.3.6Zm3.2-10.2h.8l-1.4,10.6h-.8v-.9a2,2,0,0,1-.9.9,2.4,2.4,0,0,1-3-.6,3.4,3.4,0,0,1-.7-2.2,3.8,3.8,0,0,1,.9-2.5,2.8,2.8,0,0,1,2.1-1,2,2,0,0,1,1.3.4,1.8,1.8,0,0,1,.8,1.1Zm9.6,5.1a2.4,2.4,0,0,0-1.9.8,3.2,3.2,0,0,0-.7,1.9,2.7,2.7,0,0,0,.6,1.7,2.8,2.8,0,0,0,1.7.7,2.5,2.5,0,0,0,1.8-.8,3.1,3.1,0,0,0,.7-2,2.7,2.7,0,0,0-.6-1.7,2.3,2.3,0,0,0-1.6-.6Zm-3.5,2.8a4,4,0,0,1,1-2.6,3.9,3.9,0,0,1,2.5-1,3.1,3.1,0,0,1,2.2.9,2.9,2.9,0,0,1,.9,2.2,3.5,3.5,0,0,1-1,2.5,3.1,3.1,0,0,1-2.4,1,3.6,3.6,0,0,1-2.3-.8A3.1,3.1,0,0,1,136.8,57.6Zm8.4,2.7L146,55h-1.1v-.7H146l.4-2.8a3,3,0,0,1,.5-1.5,1.2,1.2,0,0,1,1.1-.4h.5l.5.2-.2.7h-.7a.9.9,0,0,0-.6.3,1.7,1.7,0,0,0-.3,1l-.3,2.7h1.4V55h-1.4l-.7,5.3Zm7.2-.8.7-.5.6.6.7.2c.8,0,1.4-1.3,1.7-3.9,0-.4.1-.7.1-.9l.6-4.7h.9l-.8,6v.4a8.4,8.4,0,0,1-.8,3.1,1.1,1.1,0,0,1-.7.6l-1.1.2a2.3,2.3,0,0,1-1.1-.3A2,2,0,0,1,152.4,59.5ZM164,56.7a1.9,1.9,0,0,0-.5-1.4,1.6,1.6,0,0,0-1.3-.6,2.7,2.7,0,0,0-1.5.5,2.7,2.7,0,0,0-.9,1.5Zm.8.7h-5.1v.2a2.7,2.7,0,0,0,.6,1.7,2.2,2.2,0,0,0,2.6.3,2,2,0,0,0,.9-.9l.6.6a5.2,5.2,0,0,1-1.1,1,4,4,0,0,1-1.5.3,3,3,0,0,1-2.1-.8,2.9,2.9,0,0,1-.9-2.1,3.9,3.9,0,0,1,1-2.7,3.3,3.3,0,0,1,2.3-1,2.8,2.8,0,0,1,2,.8,2.5,2.5,0,0,1,.7,2v.6Zm3.3,3.3-2-6.4h.9l1.3,4.5,2.3-5,1.2,5,2.5-4.5h.9l-3.7,6.4-1.2-4.9Zm12.9-4a2.4,2.4,0,0,0-.5-1.4,1.8,1.8,0,0,0-1.3-.6,3,3,0,0,0-1.6.5,4.6,4.6,0,0,0-.9,1.5Zm.7.7h-5.1v.2a2.7,2.7,0,0,0,.6,1.7,2.3,2.3,0,0,0,2.7.3l.9-.9.5.6a3.6,3.6,0,0,1-1.1,1,3.2,3.2,0,0,1-1.4.3,3,3,0,0,1-2.2-.8,2.5,2.5,0,0,1-.8-2.1,3.5,3.5,0,0,1,.9-2.6,3,3,0,0,1,4.4-.3,2.9,2.9,0,0,1,.7,2,.4.4,0,0,1-.1.3v.3Zm1.8,2.9,1.4-10.6h.8l-1.4,10.6Zm3.4,0,.8-6h.8v1a2.8,2.8,0,0,1,.9-1,1.4,1.4,0,0,1,.9-.3h.7l-.2.9-.4-.2h-.2a1.6,1.6,0,0,0-1.3.6,3.2,3.2,0,0,0-.6,1.8l-.4,3.1Zm4.8,3.1h-.9l2.1-3.5-1.7-5.6h.9l1.4,4.8,2.7-4.8h1Zm12.4-3.1,1.2-9.2h-2.9v-.8h6.4v.8h-2.6L205,60.3Zm10.4-3.6a1.9,1.9,0,0,0-.5-1.4,1.6,1.6,0,0,0-1.3-.6,3,3,0,0,0-1.6.5,3.1,3.1,0,0,0-.8,1.5Zm.8.7h-5.1v.2a2.2,2.2,0,0,0,.5,1.7,2.3,2.3,0,0,0,1.6.6,2,2,0,0,0,1.1-.3,2,2,0,0,0,.9-.9l.6.6a4,4,0,0,1-1.2,1,3.2,3.2,0,0,1-1.4.3,3.5,3.5,0,0,1-2.2-.8,3.2,3.2,0,0,1-.8-2.1,3.9,3.9,0,0,1,.9-2.6,3.2,3.2,0,0,1,2.4-1.1,3,3,0,0,1,2,.8,2.5,2.5,0,0,1,.7,2v.6Zm6.3,2.7-.9.4h-.8a3.5,3.5,0,0,1-2.2-.8,3.2,3.2,0,0,1-.9-2.3,3.4,3.4,0,0,1,3.5-3.5l1.1.2a3.1,3.1,0,0,1,1,.5l-.3.7a1.9,1.9,0,0,0-.9-.5h-.9a2.3,2.3,0,0,0-1.9.7,3.1,3.1,0,0,0-.7,2,2.7,2.7,0,0,0,.6,1.7,2.4,2.4,0,0,0,1.7.7l.8-.2,1-.5Zm1.9.2,1.4-10.6h.9l-.8,5.5,1-.9,1.2-.3a2.4,2.4,0,0,1,1.4.5,1.3,1.3,0,0,1,.5,1.3v.7l-.5,3.8h-.9l.5-3.8a.4.4,0,0,0,.1-.3v-.3a.9.9,0,0,0-.4-.8,1,1,0,0,0-1-.3,1.5,1.5,0,0,0-1.4.6,3.4,3.4,0,0,0-.7,1.9l-.4,3Zm7.6,0,.8-6h.8v.9a4.5,4.5,0,0,1,1-.9,2.7,2.7,0,0,1,1.2-.3,2.4,2.4,0,0,1,1.4.5,1.9,1.9,0,0,1,.5,1.3v.3a.8.8,0,0,1-.1.4l-.5,3.8h-.8l.5-3.8v-.3a.4.4,0,0,0,.1-.3.9.9,0,0,0-.4-.8,1,1,0,0,0-1-.3,1.7,1.7,0,0,0-1.5.6,4.4,4.4,0,0,0-.7,1.9l-.4,3Zm10.8-5.5a2.3,2.3,0,0,0-1.8.8,2.6,2.6,0,0,0-.7,1.9,2.7,2.7,0,0,0,.6,1.7,2.6,2.6,0,0,0,1.6.7,2.7,2.7,0,0,0,1.9-.8,3.7,3.7,0,0,0,.7-2,2.1,2.1,0,0,0-2.3-2.3Zm-3.4,2.8a4,4,0,0,1,1-2.6,3.9,3.9,0,0,1,2.5-1,3.1,3.1,0,0,1,2.2.9,2.9,2.9,0,0,1,.9,2.2,3.9,3.9,0,0,1-1,2.5,3.2,3.2,0,0,1-2.5,1,3.5,3.5,0,0,1-2.2-.8,3.1,3.1,0,0,1-.9-2.2Zm8.2,2.7,1.4-10.6h.9l-1.4,10.6Zm6.7-5.5a2.3,2.3,0,0,0-1.8.8,2.6,2.6,0,0,0-.7,1.9,2.7,2.7,0,0,0,.6,1.7,2.6,2.6,0,0,0,1.7.7,2.7,2.7,0,0,0,1.8-.8,3.1,3.1,0,0,0,.7-2,2.7,2.7,0,0,0-.6-1.7A2.5,2.5,0,0,0,253.4,54.8ZM250,57.6a4,4,0,0,1,1-2.6,3.9,3.9,0,0,1,2.5-1,3.1,3.1,0,0,1,2.2.9,2.9,2.9,0,0,1,.9,2.2,3.9,3.9,0,0,1-1,2.5,3.2,3.2,0,0,1-2.5,1,3.5,3.5,0,0,1-2.2-.8A3.1,3.1,0,0,1,250,57.6Zm10.9,2.2a1.8,1.8,0,0,0,1.5-.8,3.1,3.1,0,0,0,.7-2,2.7,2.7,0,0,0-.6-1.7,1.6,1.6,0,0,0-1.3-.6,2.1,2.1,0,0,0-1.6.8,2.5,2.5,0,0,0-.6,2,2.2,2.2,0,0,0,.5,1.7A1.7,1.7,0,0,0,260.9,59.8Zm3.3-5.5-.7,5.8a4.6,4.6,0,0,1-1,2.5,2.6,2.6,0,0,1-2.1.8,2.6,2.6,0,0,1-1.8-.7,2.5,2.5,0,0,1-.8-1.7h.9a1.6,1.6,0,0,0,.5,1.1,1.9,1.9,0,0,0,1.3.5,2.2,2.2,0,0,0,1.5-.6,4.8,4.8,0,0,0,.7-2.1v-.7a2.8,2.8,0,0,1-1,.9,2.1,2.1,0,0,1-1.2.3,2.3,2.3,0,0,1-1.8-.9,3.3,3.3,0,0,1-.7-2.1A3.8,3.8,0,0,1,259,55a2.8,2.8,0,0,1,2.1-1,2,2,0,0,1,1.3.4,2.4,2.4,0,0,1,.9,1.1V54.3Zm2,9.1h-.9l2.1-3.5-1.8-5.6h.9l1.4,4.8,2.8-4.8h.9ZM280,54.1a5.6,5.6,0,0,0,1.5-1,1.4,1.4,0,0,0,.5-1,1.1,1.1,0,0,0-.4-.9,1.4,1.4,0,0,0-.9-.3,1.3,1.3,0,0,0-1,.4,2.1,2.1,0,0,0-.4,1,1.9,1.9,0,0,0,.2.8,7.3,7.3,0,0,0,.5.9Zm2.1,4.2-2.3-3.2a6.4,6.4,0,0,0-1.9,1.3,2,2,0,0,0-.6,1.5,1.7,1.7,0,0,0,1.9,1.9,3.5,3.5,0,0,0,1.4-.3,15.8,15.8,0,0,0,1.5-1.2Zm1.4,2-1-1.3a6.6,6.6,0,0,1-1.7,1.2,2.9,2.9,0,0,1-1.6.4,2.7,2.7,0,0,1-1.9-.8,2.8,2.8,0,0,1-.8-2,2.2,2.2,0,0,1,.7-1.7,6.2,6.2,0,0,1,2.2-1.7,4.7,4.7,0,0,1-.7-1.2,2.8,2.8,0,0,1-.1-.9,1.7,1.7,0,0,1,.6-1.5,2,2,0,0,1,1.5-.6,2,2,0,0,1,1.5.5,1.6,1.6,0,0,1,.6,1.3,2,2,0,0,1-.6,1.4,8.3,8.3,0,0,1-1.8,1.3l2.2,3,.7-.6.7-.8.5.6-1,1.1-.4.4,1.4,1.9Zm5.9,0,3-10.3,2.5,8.7,4.6-8.7.4,10.3h-.8l-.3-7.5-4.2,7.9-2.2-8-2.1,7.6Zm15.1-.4a2.1,2.1,0,0,0,1.6-.8,3.6,3.6,0,0,0,.6-2,2.5,2.5,0,0,0-.5-1.7,1.7,1.7,0,0,0-1.4-.7,2.1,2.1,0,0,0-1.6.8,3.7,3.7,0,0,0-.6,2.1,3.4,3.4,0,0,0,.5,1.7,2,2,0,0,0,1.4.6Zm3.4-5.6-.8,6h-.8v-.9a2,2,0,0,1-.9.9,2.7,2.7,0,0,1-1.2.3,2.1,2.1,0,0,1-1.8-.9,3.5,3.5,0,0,1-.8-2.2,3.8,3.8,0,0,1,.9-2.5,2.9,2.9,0,0,1,2.2-1,2.2,2.2,0,0,1,1.3.4,2.3,2.3,0,0,1,.8,1.1l.2-1.2Zm6.4,5.8-.8.4h-.8a3.6,3.6,0,0,1-2.3-.8,3.2,3.2,0,0,1-.9-2.3,3.9,3.9,0,0,1,1-2.5,4,4,0,0,1,2.6-1l1,.2,1,.5-.2.7-.9-.5h-1a2.3,2.3,0,0,0-1.9.7,3.7,3.7,0,0,0-.7,2,2.7,2.7,0,0,0,.6,1.7,2.2,2.2,0,0,0,1.7.6h.9l.9-.5Zm2,.2,1.4-10.6h.8l-.8,5.5a5.3,5.3,0,0,1,1.1-.9A2.1,2.1,0,0,1,320,54a2.4,2.4,0,0,1,1.4.5,1.9,1.9,0,0,1,.5,1.3.4.4,0,0,1-.1.3v.4l-.5,3.8h-.8l.5-3.8v-.6a1.1,1.1,0,0,0-1.4-1.1,1.5,1.5,0,0,0-1.4.6,3.4,3.4,0,0,0-.7,1.9l-.4,3Zm8.5-8.3c-.1-.1,0-.3.1-.4l.5-.2.4.2a.8.8,0,0,1,.2.4c0,.2-.1.3-.2.5h-.9C324.8,52.3,324.7,52.2,324.8,52Zm-.9,8.3.8-6h.8l-.8,6Zm3.4,0,.8-6h.8v.9l1-.9A2.7,2.7,0,0,1,331,54a2.4,2.4,0,0,1,1.4.5,1.5,1.5,0,0,1,.5,1.3v.7l-.5,3.8h-.9l.5-3.8a.4.4,0,0,0,.1-.3v-.3a.9.9,0,0,0-.4-.8,1,1,0,0,0-1-.3,1.4,1.4,0,0,0-1.4.6,2.8,2.8,0,0,0-.7,1.9l-.4,3Zm12.6-3.6a1.8,1.8,0,0,0-.4-1.4,1.9,1.9,0,0,0-1.3-.6,2.8,2.8,0,0,0-1.6.5,2.7,2.7,0,0,0-.9,1.5Zm.8.7h-5.1v.2a2.7,2.7,0,0,0,.6,1.7,2.3,2.3,0,0,0,1.6.6l1.1-.3a3.8,3.8,0,0,0,.9-.9l.5.6a5.2,5.2,0,0,1-1.1,1,4,4,0,0,1-1.5.3,3.2,3.2,0,0,1-2.1-.8,2.5,2.5,0,0,1-.8-2.1,3.5,3.5,0,0,1,.9-2.6,3.2,3.2,0,0,1,2.4-1.1,2.7,2.7,0,0,1,1.9.8,2.5,2.5,0,0,1,.7,2v.6Zm1.7,2.9.8-6h.8v1a2.8,2.8,0,0,1,.9-1,1.4,1.4,0,0,1,.9-.3h.7l-.2.9-.4-.2h-.2a1.6,1.6,0,0,0-1.3.6,4.5,4.5,0,0,0-.7,1.8l-.4,3.1Zm4.8,3.1h-.9l2.1-3.5-1.8-5.6h.9l1.5,4.8,2.7-4.8h1Z"/><path id="Path_61316" data-name="Path 61316" class="cls-3" d="M35.5,43.7,49.7,27.9,42.6,43.7ZM28.9,52a6.7,6.7,0,0,1-3-1.3A6,6,0,0,1,24,46.3a6.4,6.4,0,0,1,1.8-4.5l1.5-1.6L46.6,19.5A25.7,25.7,0,0,1,50.5,16H20.3L14.4,30.6h8.9L12.4,52ZM60.5,16v.2a5.5,5.5,0,0,1,1.2,3.5,12.5,12.5,0,0,1-1.2,4.6L52.6,43.7h2.1c3.3,0,5,1.2,5,3.5a4.6,4.6,0,0,1-1.8,3.7,7.4,7.4,0,0,1-4.8,1.3h-4L47,57.3l-.4,1.1c-1.2,2.9-3.1,4.4-5.7,4.4a3.9,3.9,0,0,1-2.8-1.1,3.4,3.4,0,0,1-1.2-2.6,12.6,12.6,0,0,1,1-3.8l1.2-3.1H37.4L29,62.2a11.3,11.3,0,0,0,4.8,3.6A16,16,0,0,0,40.6,67,20.1,20.1,0,0,0,49,65.2a25.7,25.7,0,0,0,7.6-5,24.4,24.4,0,0,0,3.2-4,33.2,33.2,0,0,0,2.9-6L76.6,16Z"/><path id="Path_61594" data-name="Path 61594" class="cls-3" d="M261.5,28.9l1.2-7.8-4.5,7.8ZM260,38.4l.7-4.8h-8.1l.8-4.8,8.4-13.7h7.4L267,28.9h1.7l-.8,4.7h-1.6l-.8,4.8Z"/></svg>